<?xml version="1.0" encoding="utf-8"?>
<!-- Generator: Adobe Illustrator 23.0.5, SVG Export Plug-In . SVG Version: 6.00 Build 0)  -->
<svg version="1.1" id="Capa_1" xmlns="http://www.w3.org/2000/svg" xmlns:xlink="http://www.w3.org/1999/xlink" x="0px" y="0px"
	 viewBox="0 0 3356 1215.8" style="enable-background:new 0 0 3356 1215.8;" xml:space="preserve">
<style type="text/css">
	.st0{fill:#FCA311;}
</style>
<g>
	<path class="st0" d="M123.7,861H0V375.6h29.9l40.8,57.6c19.9-18.1,42.6-32.1,68-41.9c25.4-9.8,51.7-14.7,78.9-14.7h109.2v123.3
		H217.6c-13,0-25.2,2.4-36.7,7.3c-11.5,4.8-21.5,11.5-29.9,19.9c-8.5,8.5-15.1,18.4-19.9,29.9c-4.8,11.5-7.3,23.7-7.3,36.7V861z"/>
	<path class="st0" d="M568.4,742.3c4.8,1.5,9.7,2.5,14.5,2.9c4.8,0.5,9.7,0.7,14.5,0.7c12.1,0,23.7-1.7,34.9-5
		c11.2-3.3,21.7-8.1,31.5-14.3c9.8-6.2,18.6-13.7,26.3-22.7c7.7-8.9,14-18.8,18.8-29.7l90.7,91.1c-11.5,16.3-24.7,31-39.7,44
		c-15,13-31.1,24-48.5,33.1c-17.4,9.1-35.7,15.9-54.8,20.6c-19.2,4.7-38.9,7-59.2,7c-34.2,0-66.3-6.3-96.3-19
		c-30.1-12.7-56.4-30.4-78.9-53c-22.5-22.7-40.3-49.6-53.3-80.9c-13-31.3-19.5-65.6-19.5-103.1c0-38.4,6.5-73.4,19.5-105.2
		c13-31.7,30.7-58.8,53.3-81.1c22.5-22.4,48.8-39.7,78.9-52.1c30.1-12.4,62.2-18.6,96.3-18.6c20.2,0,40,2.4,59.4,7.3
		c19.3,4.8,37.7,11.8,55.1,20.9c17.4,9.1,33.6,20.2,48.7,33.3c15.1,13.1,28.4,27.9,39.9,44.2L568.4,742.3z M631.9,487.1
		c-5.7-2.1-11.4-3.5-17-4.1c-5.6-0.6-11.4-0.9-17.5-0.9c-16.9,0-32.9,3.1-47.8,9.3c-15,6.2-28,15-39,26.5
		c-11,11.5-19.7,25.3-26.1,41.5c-6.3,16.2-9.5,34.4-9.5,54.6c0,4.5,0.2,9.7,0.7,15.4c0.5,5.7,1.2,11.6,2.3,17.5
		c1.1,5.9,2.3,11.6,3.9,17c1.5,5.4,3.5,10.3,5.9,14.5L631.9,487.1z"/>
	<path class="st0" d="M1329,799.8c0,34.2-6.5,66.2-19.5,96.1c-13,29.9-30.8,56-53.3,78.4c-22.5,22.4-48.8,40-78.9,53
		c-30.1,13-62.2,19.5-96.3,19.5l-62.1-0.9V922.2l61.2,0.9c19.3,0,35.8-2.5,49.4-7.5c13.6-5,25.1-11.8,34.4-20.4
		c9.4-8.6,16.8-18.5,22.4-29.7c5.6-11.2,10-23,13.4-35.4c-4.8,7.9-11.8,14.3-20.9,19.3c-9.1,5-19.1,9.1-30.1,12.2
		c-11,3.2-22.5,5.4-34.4,6.6c-11.9,1.2-23,1.8-33.3,1.8c-34.2,0-66.3-5.9-96.3-17.7c-30.1-11.8-56.4-28.6-78.9-50.5
		c-22.5-21.9-40.3-48.7-53.3-80.5c-13-31.7-19.5-67.5-19.5-107.4c0-36.6,6.5-70.6,19.5-102c13-31.4,30.7-58.6,53.3-81.6
		c22.5-23,48.8-40.9,78.9-53.9c30.1-13,62.2-19.5,96.3-19.5c15.7,0,31.3,2,46.7,5.9c15.4,3.9,30.4,9.4,44.9,16.3
		c14.5,7,28.3,15.1,41.5,24.5c13.1,9.4,25.5,19.5,36.9,30.4l48-57.6h29.9V799.8z M1204.3,614c0-16.9-3.3-33.3-9.7-49.2
		c-6.5-15.9-15.3-29.9-26.5-42.2c-11.2-12.2-24.2-22.1-39.2-29.5c-15-7.4-30.9-11.1-47.8-11.1c-16.9,0-32.9,2.9-47.8,8.6
		c-15,5.7-28,14.2-39,25.4c-11,11.2-19.7,25-26.1,41.5c-6.3,16.5-9.5,35.3-9.5,56.4c0,20.2,3.2,38.5,9.5,54.6
		c6.3,16.2,15,30,26.1,41.5c11,11.5,24,20.3,39,26.5c15,6.2,30.9,9.3,47.8,9.3c16.9,0,32.9-3.7,47.8-11.1c15-7.4,28-17.2,39.2-29.5
		c11.2-12.2,20-26.3,26.5-42.2C1201.1,647.3,1204.3,630.9,1204.3,614z"/>
	<path class="st0" d="M1569.2,243.7c0,11.5-2.2,22.2-6.6,32.2c-4.4,10-10.4,18.7-17.9,26.1c-7.6,7.4-16.4,13.3-26.5,17.7
		c-10.1,4.4-20.9,6.6-32.4,6.6c-11.5,0-22.3-2.2-32.4-6.6c-10.1-4.4-18.9-10.3-26.3-17.7c-7.4-7.4-13.3-16.1-17.7-26.1
		c-4.4-10-6.6-20.7-6.6-32.2c0-11.2,2.2-21.8,6.6-32c4.4-10.1,10.3-18.9,17.7-26.3c7.4-7.4,16.2-13.3,26.3-17.7
		c10.1-4.4,20.9-6.6,32.4-6.6c11.5,0,22.3,2.2,32.4,6.6c10.1,4.4,19,10.3,26.5,17.7c7.5,7.4,13.5,16.2,17.9,26.3
		C1567,221.8,1569.2,232.5,1569.2,243.7z M1547.9,861h-124.6V375.6h124.6V861z"/>
	<path class="st0" d="M1908.7,861h-282.8V737.7h282.8c8.5,0,15.7-3,21.8-9.1c6-6,9.1-13.3,9.1-21.8c0-8.8-3-14.5-9.1-17.2
		c-6-2.7-13.3-4.1-21.8-4.1H1780c-21.5,0-41.6-4.1-60.3-12.2c-18.7-8.2-35.1-19.3-49-33.3c-13.9-14.1-24.9-30.4-32.9-49.2
		c-8-18.7-12-38.8-12-60.3c0-21.5,4-41.5,12-60.3c8-18.7,19-35.1,32.9-49c13.9-13.9,30.2-24.9,49-32.9c18.7-8,38.8-12,60.3-12h250.7
		v123.3H1780c-8.5,0-15.7,3-21.8,9.1c-6,6-9.1,13.3-9.1,21.8c0,8.8,3,16.2,9.1,22.4c6,6.2,13.3,9.3,21.8,9.3h128.7
		c21.1,0,41.1,3.6,59.8,10.7c18.7,7.1,35.1,17,49,29.7c13.9,12.7,24.9,28,33.1,45.8c8.2,17.8,12.2,37.3,12.2,58.5
		c0,21.5-4.1,41.5-12.2,60.1c-8.2,18.6-19.2,34.9-33.1,49c-13.9,14.1-30.2,25.1-49,33.1C1949.8,857,1929.9,861,1908.7,861z"/>
	<path class="st0" d="M2253.2,1046h-124.6V375.6h29.9l49.4,58.5c11.2-10.6,23.4-20.5,36.7-29.9c13.3-9.4,27.1-17.5,41.5-24.2
		c14.3-6.8,29.2-12.2,44.6-16.1c15.4-3.9,31-5.9,46.7-5.9c34.1,0,66.2,6.1,96.3,18.4c30.1,12.2,56.4,29.5,78.9,51.9
		c22.5,22.4,40.3,49.3,53.3,80.9c13,31.6,19.5,66.6,19.5,104.9c0,39.9-6.5,75.8-19.5,107.7c-13,31.9-30.8,58.9-53.3,81.1
		c-22.5,22.2-48.8,39.2-78.9,51c-30.1,11.8-62.2,17.7-96.3,17.7c-10.9,0-21.7-1.2-32.4-3.6c-10.7-2.4-21.3-5.7-31.7-9.7
		c-10.4-4.1-20.7-8.7-30.8-13.8c-10.1-5.1-19.9-10.4-29.2-15.9V1046z M2501.1,614c0-20.5-3.3-39-9.7-55.3
		c-6.5-16.3-15.3-30.1-26.5-41.5c-11.2-11.3-24.3-20-39.4-26.1c-15.1-6-31.1-9.1-48-9.1c-16.9,0-32.9,3-47.8,9.1
		c-15,6-28,14.7-39.2,26.1c-11.2,11.3-20,25.2-26.5,41.5c-6.5,16.3-9.7,34.8-9.7,55.3c0,19.6,3.2,37.6,9.7,53.9
		c6.5,16.3,15.3,30.2,26.5,41.7c11.2,11.5,24.3,20.4,39.2,26.7s30.9,9.5,47.8,9.5c16.9,0,32.9-3.2,48-9.5
		c15.1-6.3,28.3-15.3,39.4-26.7c11.2-11.5,20-25.4,26.5-41.7C2497.9,651.6,2501.1,633.6,2501.1,614z"/>
	<path class="st0" d="M3162.9,614c0,36.3-6.5,70-19.5,101.3c-13,31.3-30.7,58.3-53,81.1c-22.4,22.8-48.6,40.8-78.6,53.9
		c-30.1,13.1-62.3,19.7-96.8,19.7c-34.2,0-66.3-6.6-96.3-19.7c-30.1-13.1-56.4-31.1-78.9-53.9c-22.5-22.8-40.3-49.9-53.3-81.1
		c-13-31.3-19.5-65-19.5-101.3c0-36.9,6.5-71,19.5-102.4c13-31.4,30.7-58.5,53.3-81.4c22.5-22.8,48.8-40.7,78.9-53.7
		c30.1-13,62.2-19.5,96.3-19.5c34.4,0,66.7,6.1,96.8,18.4c30.1,12.2,56.3,29.6,78.6,52.1c22.4,22.5,40,49.6,53,81.1
		C3156.4,540.2,3162.9,575.3,3162.9,614z M3038.3,614c0-19.9-3.3-38-9.7-54.2c-6.5-16.2-15.3-30.1-26.5-41.7
		c-11.2-11.6-24.3-20.5-39.2-26.7c-15-6.2-30.9-9.3-47.8-9.3c-16.9,0-32.9,3.1-47.8,9.3c-15,6.2-28,15.1-39,26.7
		c-11,11.6-19.7,25.5-26.1,41.7c-6.3,16.2-9.5,34.2-9.5,54.2c0,18.7,3.2,36.1,9.5,52.1c6.3,16,15,29.9,26.1,41.7
		c11,11.8,24,21.1,39,27.9c15,6.8,30.9,10.2,47.8,10.2c16.9,0,32.9-3.2,47.8-9.5s28-15.3,39.2-26.7c11.2-11.5,20-25.4,26.5-41.7
		C3035,651.6,3038.3,633.6,3038.3,614z"/>
	<path class="st0" d="M3356,861h-124.6V182.5H3356V861z"/>
</g>
</svg>
